<?xml version="1.0" encoding="utf-8"?>
<!-- Generator: Adobe Illustrator 23.0.1, SVG Export Plug-In . SVG Version: 6.00 Build 0)  -->
<!--CREDIT: DataBase Center for Life Science (DBCLS), CC BY 4.0 <https://creativecommons.org/licenses/by/4.0>, via Wikimedia Commons -->
<svg version="1.1" id="レイヤー_2" xmlns="http://www.w3.org/2000/svg" xmlns:xlink="http://www.w3.org/1999/xlink" x="0px"
	 y="0px" viewBox="0 0 300 300" style="enable-background:new 0 0 300 300;" xml:space="preserve">
<style type="text/css">
	.st0{opacity:0.7;fill:#B0DBD4;stroke:#AAAAAA;stroke-width:2;stroke-miterlimit:10;}
	.st1{fill:#87BFC1;}
	.st2{fill:#999999;}
	.st3{fill:#B5D569;}
	.st4{opacity:0.35;fill:#B0DBD4;stroke:#AAAAAA;stroke-width:2;stroke-miterlimit:10;}
	.st5{opacity:0.7;fill:#B0DBD4;stroke:#AAAAAA;stroke-width:2;stroke-linecap:round;stroke-linejoin:round;stroke-miterlimit:10;}
	.st6{opacity:0.7;fill:none;stroke:#AAAAAA;stroke-width:2;stroke-linecap:round;stroke-miterlimit:10;}
	.st7{fill:#FFFFFF;stroke:#AAAAAA;stroke-width:2;stroke-linecap:round;stroke-linejoin:round;stroke-miterlimit:10;}
	.st8{fill:#FFFFFF;stroke:#777777;stroke-width:0.5;stroke-miterlimit:10;}
	.st9{fill:#111111;}
	.st10{opacity:0.71;fill:#B0DBD4;stroke:#AAAAAA;stroke-width:2;stroke-linecap:round;stroke-linejoin:round;stroke-miterlimit:10;}
	.st11{opacity:0.7;fill:none;stroke:#AAAAAA;stroke-width:2;stroke-linecap:round;stroke-linejoin:round;stroke-miterlimit:10;}
</style>
<path class="st0" d="M74.6,103.39c4.15,4.01,11.16-2.91,16.7-4.51c-11.21,8.43-15.03,23.35-17.38,37.18
	c-2.55,15.05-2.4,29.16,0.36,45.34c3.17,18.57,11.48,36.08,26.23,47.8c15.19,12.07,35.42,17.59,54.64,14.85
	c5.02-0.72,10.08,1.67,12.46,6.15c2.6,4.89,2.63,10.68,2.6,16.21c-0.04,7.01-0.07,14.02-0.11,21.03c-0.01,1.55,0.03,3.22,0.59,4.62
	c0.24,0.6,1.12,0.53,1.26-0.1c0.58-2.59,1.89-7.51,2.8-10.26c2.15-6.53,4.31-13.07,6.46-19.6c2.45-7.42,7.86-13.54,15-16.7
	c24.39-10.81,48.26-29.45,54.66-55.43c1.97-7.98,4.88-24.6,5.89-36.97c0.91-11.16,1.81-20.46,1-30.38
	c-0.66-8.14-1.46-12.23-2.99-18.37c-1.59-6.37-4.91-12.16-8.18-17.85c-3.36-5.84-20.64-25.34-26.24-29.21
	c-16.64-11.51-37.69-15.81-57.9-16.64c-4.64-0.19-9.32-0.14-13.86,0.83c-5.06,1.08-9.81,3.25-14.44,5.55
	C113.72,57.08,94.27,70.31,80.8,88.71C77.74,92.89,70.87,99.79,74.6,103.39z"/>
<path class="st1" d="M141.81,76.16c-0.68,1.92-1.26,4.32,0.18,5.76c0.58,0.57,1.38,0.86,2.18,1.01c4.09,0.78,8.08-1.45,12.08-2.6
	c10.78-3.11,23.4,2.55,28.24,12.67c8.4,17.57,9.26,38.04,8.73,57.52c-0.22,8.23-3.27,16.18-4.99,24.23
	c-1.4,6.55-2.88,13.28-6.58,18.86c-7.11,10.72-7.58,24.55-13.85,35.79c-0.88,1.58-1.87,3.23-3.49,4.06
	c-2.12,1.09-4.71,0.45-6.89-0.52c-5.47-2.44-10.03-6.88-12.58-12.3c-0.56-1.19-1.1-2.5-2.24-3.16c-2.2-1.27-5.09,1.06-5.27,3.59
	c-0.18,2.53,1.42,4.83,3.11,6.73c5.01,5.61,11.77,9.89,19.22,10.88c11.84,1.57,23.57-5.49,30.54-15.19
	c6.97-9.7,9.96-21.66,11.99-33.43c4.61-26.7,5-54.12,1.15-80.94c-1.55-10.78-7.51-20.37-14.47-28.75
	c-5.37-6.46-11.41-13.15-19.56-15.21C159.12,62.57,145.33,66.24,141.81,76.16z"/>
<path class="st2" d="M115.04,97.52c-12,7.74-18.88,21.8-20.69,35.97s0.9,28.53,4.63,42.31c3.2,11.8,7.95,24.41,18.54,30.53
	c7.38,4.26,13,8.89,21.48,9.73c4.89,0.48,10.06,0.49,14.43-1.76c5.24-2.7,8.43-8.15,10.79-13.54c9.11-20.85,9.74-44.96,3.34-66.8
	c-3.62-12.35-9.76-24.48-20.05-32.21S125.86,90.55,115.04,97.52z"/>
<path class="st3" d="M203.76,84.07c-1.11,4.06-1.95,8.44-0.53,12.4c0.96,2.66,2.93,4.94,5.43,6.26c1.21,0.64,2.59,1.07,3.94,0.86
	c3.19-0.48,4.85-4.06,5.47-7.23c0.76-3.88,0.8-8.01-0.65-11.69C214.23,76.56,206.28,74.84,203.76,84.07z"/>
<path class="st3" d="M225.1,96.55c-0.7,3.25-1.19,6.73-0.02,9.84c1.17,3.12,4.51,5.65,7.73,4.83c2.76-0.7,4.45-3.47,5.46-6.13
	c1.3-3.45,1.93-7.35,0.59-10.78C235.2,84.96,226.81,88.64,225.1,96.55z"/>
<path class="st3" d="M228.23,139.03c1.52,1.87,3.9,3.38,6.24,2.8c2.87-0.71,4.13-4.03,4.76-6.92c0.71-3.25,1.19-6.61,0.65-9.88
	c-1.09-6.62-8.77-13.25-12.73-4.78C224.71,125.46,224.52,134.47,228.23,139.03z"/>
<path class="st3" d="M207.16,127.22c0.44,3.2,2.14,6.13,4.3,8.54c0.39,0.44,0.81,0.87,1.36,1.09c0.63,0.26,1.35,0.2,2.01,0.04
	c4.63-1.12,6.86-6.47,7.22-11.22c0.36-4.75-1.61-14.6-8.31-14.29C207.82,111.66,206.57,122.88,207.16,127.22z"/>
<path class="st3" d="M226.02,147.99c-0.41,3.44-0.63,6.9-0.65,10.36c-0.01,1.96,0.12,4.11,1.43,5.57c0.89,0.99,2.22,1.5,3.54,1.68
	c4.03,0.57,8.3-1.89,9.83-5.66c0.78-1.92,0.89-4.03,0.93-6.1c0.04-2.24-0.08-4.68-1.55-6.36c-0.95-1.08-2.32-1.69-3.68-2.17
	c-2.22-0.79-4.69-1.33-6.91-0.54c-2.22,0.79-3.93,3.37-3.03,5.54"/>
<path class="st3" d="M209.53,150.16c-1.36,4.07-2.62,8.88-0.1,12.36c2.11,2.91,6.7,3.6,9.57,1.45c3.33-2.5,3.65-7.28,3.68-11.45
	c0.01-1.55,0.01-3.16-0.65-4.56C218.51,140.5,211.45,144.39,209.53,150.16z"/>
<path class="st3" d="M225.4,191.81c0.07,1.51,0.67,3.47,2.18,3.44c0.26-0.01,0.51-0.08,0.76-0.16c4.26-1.36,7.49-5.09,9.02-9.29
	c1.53-4.2,1.51-8.83,0.8-13.24c-0.11-0.68-0.24-1.37-0.6-1.95c-0.5-0.82-1.38-1.34-2.31-1.6
	C225.31,166.16,225.15,186.25,225.4,191.81z"/>
<path class="st3" d="M210.47,193.18c2.07,2.93,6.11,3.93,8.4,1.26c0.96-1.11,1.48-2.66,1.96-4.17c2.18-6.97,4.24-21.61-6.09-19.76
	C207.14,171.88,206.3,187.27,210.47,193.18z"/>
<path class="st3" d="M201.06,216.79c-0.06,0.58-0.09,1.19,0.13,1.72c0.24,0.57,0.76,0.98,1.29,1.31c3.81,2.37,9.27,1.59,12.26-1.76
	c2.61-2.92,3.18-7.07,3.64-10.96c0.15-1.31,0.29-2.72-0.32-3.89c-0.44-0.83-1.21-1.43-2.01-1.91
	C204.8,194.69,201.84,208.67,201.06,216.79z"/>
<path class="st4" d="M74.6,103.39c4.15,4.01,11.16-2.91,16.7-4.51c-11.21,8.43-15.03,23.35-17.38,37.18
	c-2.55,15.05-2.4,29.16,0.36,45.34c3.17,18.57,11.48,36.08,26.23,47.8c15.19,12.07,35.42,17.59,54.64,14.85
	c5.02-0.72,10.08,1.67,12.46,6.15c2.6,4.89,2.63,10.68,2.6,16.21c-0.04,7.01-0.07,14.02-0.11,21.03c-0.01,1.55,0.03,3.22,0.59,4.62
	c0.24,0.6,1.12,0.53,1.26-0.1c0.58-2.59,1.89-7.51,2.8-10.26c2.15-6.53,4.31-13.07,6.46-19.6c2.45-7.42,7.86-13.54,15-16.7
	c24.39-10.81,48.26-29.45,54.66-55.43c1.97-7.98,4.88-24.6,5.89-36.97c0.91-11.16,1.81-20.46,1-30.38
	c-0.66-8.14-1.46-12.23-2.99-18.37c-1.59-6.37-4.91-12.16-8.18-17.85c-3.36-5.84-20.64-25.34-26.24-29.21
	c-16.64-11.51-37.69-15.81-57.9-16.64c-4.64-0.19-9.32-0.14-13.86,0.83c-5.06,1.08-9.81,3.25-14.44,5.55
	C113.72,57.08,94.27,70.31,80.8,88.71C77.74,92.89,70.87,99.79,74.6,103.39z"/>
<path class="st5" d="M77.76,44.15c-0.11-0.16-0.79-0.2-0.96,0.04c-0.23,1.2-0.67,4.58-0.82,4.92c1.21,0.36,2.44,0.88,3.65,1.33
	c9.41,3.53,16.65,8.38,24.01,15.22c0.29-2.01,3.5-2.4,4.22-3.47C99.22,54.19,88.9,48,77.76,44.15z"/>
<path class="st6" d="M104.95,263.41c4.46-7.51,9.85-14.47,16.01-20.67c2.35,6.37,2.61,15.48,2.93,22.27"/>
<circle class="st7" cx="126.37" cy="61.5" r="14.18"/>
<g>
	<circle class="st8" cx="118.2" cy="51.2" r="1.39"/>
	<circle class="st8" cx="115.83" cy="53.2" r="1.39"/>
	<circle class="st8" cx="114.44" cy="55.98" r="1.39"/>
	<circle class="st8" cx="113.39" cy="58.75" r="1.39"/>
	<circle class="st8" cx="113.15" cy="61.86" r="1.39"/>
	<circle class="st8" cx="113.36" cy="64.95" r="1.39"/>
	<circle class="st8" cx="114.79" cy="67.71" r="1.39"/>
	<circle class="st8" cx="116.4" cy="70.19" r="1.39"/>
	<circle class="st8" cx="118.77" cy="72.35" r="1.39"/>
	<circle class="st8" cx="121.38" cy="74.03" r="1.39"/>
	<circle class="st8" cx="124.44" cy="74.53" r="1.39"/>
	<circle class="st8" cx="127.4" cy="74.73" r="1.39"/>
	<g>
		<circle class="st8" cx="137" cy="69.1" r="1.39"/>
		<circle class="st8" cx="138.63" cy="66.46" r="1.39"/>
		<circle class="st8" cx="139.09" cy="63.39" r="1.39"/>
		<circle class="st8" cx="139.23" cy="60.43" r="1.39"/>
		<circle class="st8" cx="138.49" cy="57.4" r="1.39"/>
		<circle class="st8" cx="137.32" cy="54.53" r="1.39"/>
		<circle class="st8" cx="135.12" cy="52.35" r="1.39"/>
		<circle class="st8" cx="132.81" cy="50.49" r="1.39"/>
		<circle class="st8" cx="129.88" cy="49.18" r="1.39"/>
		<circle class="st8" cx="126.88" cy="48.4" r="1.39"/>
		<circle class="st8" cx="123.82" cy="48.86" r="1.39"/>
		<circle class="st8" cx="120.94" cy="49.6" r="1.39"/>
	</g>
	<circle class="st8" cx="130.17" cy="74.03" r="1.39"/>
	<circle class="st8" cx="132.81" cy="72.64" r="1.39"/>
	<circle class="st8" cx="135.12" cy="71.25" r="1.39"/>
</g>
<circle class="st9" cx="126.17" cy="61.54" r="11.72"/>
<path class="st5" d="M138.58,101.56c-10.04-10.02-20.46-19.79-32.29-27.63c-9.32-6.17-45.8-18.08-53.37-20.43
	c0.33,1.07-2.01,6.14-2.92,7.08c0,0.26,19.81,6.58,20.01,6.65c26.83,9.23,51.39,25,70.93,45.57c0.32,0.34,0.89,0.13,0.91-0.34
	C142.05,108.38,141.49,104.47,138.58,101.56z"/>
<path class="st10" d="M72.93,61.14c-0.79,2.41-1.07,3.17-2.03,5.52"/>
<path class="st10" d="M103.32,73.26c-0.79,2.41-1.67,4.81-2.63,7.16"/>
<path class="st5" d="M88.45,49.83c-0.79,2.41-0.12,0.59-1.08,2.94"/>
<path class="st11" d="M52.6,53.99c-8.06-4.97-17.48-7.73-26.95-7.89c-3.43-0.06-7.13,0.32-9.7,2.59"/>
<path class="st11" d="M51.77,56.96c-6.39,0.42-12.78-0.77-19.18-0.95S19.36,56.86,14.47,61"/>
<path class="st11" d="M50.74,60.54c-5.49-0.67-10.88,1.53-15.98,3.69c-7.76,3.29-15.88,6.85-21,13.54"/>
<path class="st11" d="M76.25,44.24c-8.2-4.67-17.57-7.25-27-7.43"/>
<path class="st11" d="M75.98,48.36c-3-1.28-6.07-2.46-9.3-2.95c-1.05-0.16-2.12-0.25-3.18-0.34c-5.17-0.43-10.34-0.85-15.51-1.28"/>
<path class="st11" d="M40.79,82.8c7.98-7.68,18.3-12.9,29.21-14.78c-2.3,5.84-5.11,12.8-8.9,17.81"/>
<path class="st11" d="M85.33,54.07c-4.9-0.31-9.81-0.22-14.7,0.26"/>
</svg>
